#!OML:ASF F:\VICON\USERDATA\INSTALL\rory3\rory3.ASF
:FULLY-SPECIFIED
:DEGREES
97
root 0.519766149763297 17.81681517233017 14.53519411947126 12.926047991707929 -1.211105497298079 -2.9162623175452063
lfemur -32.045032587742845 8.626460941402202 -17.937167789623967
ltibia 44.51752482234235
lfoot -10.346046674078913 1.3749228559163873
ltoes -8.774115275550399
rfemur -30.130391628373307 -2.389831835317339 22.018886628181427
rtibia 30.239144552603683
rfoot -14.203516433079155 3.385649311350671
rtoes 10.375689988946792
lowerback 7.002630375087545 1.1381420149846042 -0.39849297208737566
upperback 5.5435384205837055 1.3551796701009027 1.2275617698702548
thorax 2.341898114138764 0.5861741070666409 1.3129736754454697
lowerneck -14.268390582332389 0.22524754239735112 -1.0617693281603253
upperneck 22.361075541697108 0.35065005525724513 0.12028777392684542
head 8.938465284806194 0.06376183357726278 0.054528459204079255
lclavicle 3.875760479319132e-16 -1.4347454375620162e-15
lhumerus -27.898293529025995 -1.4854001085002895 79.45900873563623
lradius 19.076049759237435
lwrist 1.0450371370315548
lhand -25.184614668261027 -7.368077862051899
lfingers 7.12502
lthumb 0.971595286424577 21.971627908730863
rclavicle 3.878003784694064e-16 -1.4349015030084345e-15
rhumerus -28.33241305364922 -9.32950999262582 -71.0694197808687
rradius 31.838592267939458
rwrist 24.532200799639696
rhand -23.37488974894409 -26.142299609204272
rfingers 7.12502
rthumb 4.5040867194159215 -55.1005437105416
98
root 0.5246636681236804 17.767236289803733 14.597260485378523 12.549424448045986 -1.2624074453703493 -2.8480401003673057
lfemur -32.189980518604074 8.634369087833539 -17.999330716764252
ltibia 45.50532362361681
lfoot -10.388854039843137 1.2569444933467215
ltoes -8.786503816327606
rfemur -30.24745177754607 -2.3472561008865673 21.955915642003077
rtibia 30.698918997645414
rfoot -14.148010630939762 3.4075944818471835
rtoes 10.422271945352406
lowerback 7.456318124077052 1.1790479432066996 -0.48344199873905064
upperback 5.589851261792642 1.3995153301320693 1.1862458830612117
thorax 2.261606640223837 0.6081840454699656 1.3003455632480136
lowerneck -14.174362980779467 0.24784378062186924 -0.981358597019612
upperneck 21.8597203321285 0.3881087179357521 0.053182346274095516
head 8.742071086636818 0.07045114675035813 0.0004265497075238711
lclavicle 3.879247081944804e-16 -1.4342437548024603e-15
lhumerus -26.062472463598496 -2.4948162014367514 79.4168693983208
lradius 20.108482035550253
lwrist 4.6856953149541045
lhand -25.274000414404206 -7.536667644307101
lfingers 7.12502
lthumb 0.7857179178024198 21.68804134103075
rclavicle 3.8767598132264487e-16 -1.4350777496989366e-15
rhumerus -28.756327899742388 -9.728247019922177 -70.30303284461
rradius 31.872060619563065
rwrist 24.151895875049085
rhand -23.366181065493404 -26.00777507646717
rfingers 7.12502
rthumb 4.706268242024666 -54.90093008222244
99
root 0.5262065338704354 17.72269837205956 14.642912137709555 12.229854410089724 -1.3607665669497804 -2.715888737104144
lfemur -32.376820720858255 8.650338435522361 -18.134645076770997
ltibia 46.388161317156474
lfoot -10.326710152520608 1.2157492123462763
ltoes -8.809685145244085
rfemur -30.334289652555842 -2.2928465036022283 21.837366277608925
rtibia 31.077993737870887
rfoot -14.162934737404825 3.320326848606317
rtoes 10.389379148767379
lowerback 7.863614225836627 1.2267640244043703 -0.6839015099365078
upperback 5.6461990794328925 1.4566778368701456 1.1242268417641754
thorax 2.188243166172985 0.6327244632844886 1.3059699774486493
lowerneck -14.115525715736862 0.2717392096291514 -0.8951569339210801
upperneck 21.449053466458327 0.42764675541647756 -0.012559074715780605
head 8.620893231223915 0.0820377576235155 -0.048297514932473556
lclavicle 3.88046426527456e-16 -1.43407721477817e-15
lhumerus -24.285716991189815 -3.399358576602388 79.379732391405
lradius 21.235247472129952
lwrist 8.091496222040963
lhand -25.284696476082118 -7.616669834445498
lfingers 7.12502
lthumb 0.6226503313669799 21.48955220624954
rclavicle 3.8813090383869794e-16 -1.4344361874565194e-15
rhumerus -29.18672844289806 -9.858889528929291 -69.72825835823596
rradius 32.06916408642183
rwrist 23.669459675286507
rhand -23.362365657401906 -25.899311768677354
rfingers 7.12502
rthumb 4.881630938795948 -54.729613944567916
100
root 0.5255747769327144 17.6766950011764 14.685408852349324 11.927338527990784 -1.4812717610923807 -2.6725665728246932
lfemur -32.51500426190368 8.675011924634584 -18.190277977105378
ltibia 47.02395276271858
lfoot -10.335594070625342 1.1958667542139585
ltoes -8.95388484497208
rfemur -30.403673657184452 -2.251583972259546 21.80261807415105
rtibia 31.368446135269075
rfoot -14.196978407361133 3.226535184279689
rtoes 10.227984329255431
lowerback 8.29611982936059 1.277657813757859 -0.7717643907456644
upperback 5.721049228808574 1.5136458291806236 1.0856381861392765
thorax 2.1275489520066357 0.6549999529989434 1.288036621939078
lowerneck -14.06819244884673 0.30291329464762684 -0.7765773121004741
upperneck 21.18783432295032 0.4810760864909729 -0.08160523642860623
head 8.541418964791985 0.10166101085295265 -0.09535195831309642
lclavicle 3.878501320089286e-16 -1.434356295023797e-15
lhumerus -22.615483856066376 -4.114487080864848 79.37774803098773
lradius 22.346925374355827
lwrist 11.006259251502788
lhand -25.26908340873797 -7.668238727862958
lfingers 7.12502
lthumb 0.5175315018334705 21.330942296151722
rclavicle 3.881826689682741e-16 -1.4343624533417746e-15
rhumerus -29.56968859038621 -9.677874840729071 -69.43217931476502
rradius 32.54577710684805
rwrist 23.081630753032172
rhand -23.366359145693977 -25.77169457334798
rfingers 7.12502
rthumb 5.016924115319396 -54.591021675234714
